<svg xmlns="http://www.w3.org/2000/svg" width="860" height="200" viewBox="0 0 860 200" role="img" aria-label="Backend request flow: Client to API to Cache to Database"><style>text{font-family:ui-monospace,'DejaVu Sans Mono',Consolas,monospace;}.title{fill:#39d353;font-size:14px;font-weight:700;}.ntitle{fill:#c9d1d9;font-size:16px;font-weight:700;}.nsub{fill:#8b949e;font-size:11px;}.llabel{fill:#8b949e;font-size:10px;}</style><rect width="860" height="200" rx="12" fill="#0d1117"/><text x="24" y="34" class="title">~ $ trace request --flow</text><line x1="170.0" y1="112" x2="235.0" y2="112" stroke="#30363d" stroke-width="2"/><polygon points="243.0,112 234.0,107 234.0,117" fill="#8b949e"/><text x="206.5" y="100" text-anchor="middle" class="llabel">request</text><line x1="393.0" y1="112" x2="458.0" y2="112" stroke="#30363d" stroke-width="2"/><polygon points="466.0,112 457.0,107 457.0,117" fill="#8b949e"/><text x="429.5" y="100" text-anchor="middle" class="llabel">cache check</text><line x1="616.0" y1="112" x2="681.0" y2="112" stroke="#30363d" stroke-width="2"/><polygon points="689.0,112 680.0,107 680.0,117" fill="#8b949e"/><text x="652.5" y="100" text-anchor="middle" class="llabel">query</text><g><rect x="20.0" y="75.0" width="150" height="74" rx="10" fill="#0d1117" stroke="#30363d"/><rect x="20.0" y="75.0" width="150" height="74" rx="10" fill="none" stroke="#39d353" stroke-width="2" opacity="0"><animate attributeName="opacity" dur="6.0s" repeatCount="indefinite" keyTimes="0;0.000;0.000;0.060;1" values="0;0;0.9;0;0"/></rect><text x="95" y="106" text-anchor="middle" class="ntitle">Client</text><text x="95" y="128" text-anchor="middle" class="nsub">HTTP / REST</text></g><g><rect x="243.0" y="75.0" width="150" height="74" rx="10" fill="#0d1117" stroke="#30363d"/><rect x="243.0" y="75.0" width="150" height="74" rx="10" fill="none" stroke="#39d353" stroke-width="2" opacity="0"><animate attributeName="opacity" dur="6.0s" repeatCount="indefinite" keyTimes="0;0.200;0.220;0.280;1" values="0;0;0.9;0;0"/></rect><text x="318" y="106" text-anchor="middle" class="ntitle">API</text><text x="318" y="128" text-anchor="middle" class="nsub">NestJS · Node</text></g><g><rect x="466.0" y="75.0" width="150" height="74" rx="10" fill="#0d1117" stroke="#30363d"/><rect x="466.0" y="75.0" width="150" height="74" rx="10" fill="none" stroke="#39d353" stroke-width="2" opacity="0"><animate attributeName="opacity" dur="6.0s" repeatCount="indefinite" keyTimes="0;0.500;0.520;0.580;1" values="0;0;0.9;0;0"/></rect><text x="541" y="106" text-anchor="middle" class="ntitle">Cache</text><text x="541" y="128" text-anchor="middle" class="nsub">Redis</text></g><g><rect x="689.0" y="75.0" width="150" height="74" rx="10" fill="#0d1117" stroke="#30363d"/><rect x="689.0" y="75.0" width="150" height="74" rx="10" fill="none" stroke="#39d353" stroke-width="2" opacity="0"><animate attributeName="opacity" dur="6.0s" repeatCount="indefinite" keyTimes="0;0.800;0.820;0.880;1" values="0;0;0.9;0;0"/></rect><text x="764" y="106" text-anchor="middle" class="ntitle">Database</text><text x="764" y="128" text-anchor="middle" class="nsub">MongoDB</text></g><circle cx="95" cy="112" r="11" fill="#39d353" opacity="0.25"><animate attributeName="cx" dur="6.0s" repeatCount="indefinite" calcMode="linear" keyTimes="0;0.22;0.30;0.52;0.60;0.82;0.92;1" values="95;318;318;541;541;764;764;95"/></circle><circle cx="95" cy="112" r="6" fill="#39d353" opacity="1"><animate attributeName="cx" dur="6.0s" repeatCount="indefinite" calcMode="linear" keyTimes="0;0.22;0.30;0.52;0.60;0.82;0.92;1" values="95;318;318;541;541;764;764;95"/></circle></svg>